<svg width="722" height="714" viewBox="0 0 722 714" fill="none" xmlns="http://www.w3.org/2000/svg">
<g id="EMBLEM">
<path id="CenterCircle" fill-rule="evenodd" clip-rule="evenodd" d="M238.045 257.393C165.49 257.393 114.141 347.189 100.491 394.706C100.246 395.562 101.167 396.246 101.946 395.815C114.242 389.027 137.948 378.095 155.699 376.673C158.702 376.432 160.413 379.658 158.915 382.273C100.954 483.419 131.711 714 362.985 714C594.258 714 625.015 483.419 567.054 382.273C565.556 379.658 567.267 376.432 570.27 376.673C588.021 378.095 611.727 389.027 624.023 395.815C624.803 396.246 625.724 395.562 625.478 394.706C611.828 347.189 560.479 257.393 487.924 257.393C433.874 257.392 402.762 272.428 364.778 291.397C363.652 291.959 362.317 291.959 361.191 291.397C323.207 272.428 292.095 257.392 238.045 257.393ZM359.115 655.956C446.736 655.956 517.766 584.925 517.766 497.304C517.766 409.684 446.736 338.653 359.115 338.653C271.494 338.653 200.463 409.684 200.463 497.304C200.463 584.925 271.494 655.956 359.115 655.956Z" fill="white" fill-opacity="0.2"/>
<path id="LeftBottom" d="M96.1524 518.698C17.1386 380.03 73.1727 284.781 107.157 247.314C107.725 246.688 107.357 245.736 106.511 245.726C91.1525 245.552 -5.12836 249.097 0.214082 365.739C3.50329 437.553 76.4613 504.322 94.7561 519.978C95.5984 520.698 96.7012 519.661 96.1524 518.698Z" fill="white" fill-opacity="0.2"/>
<path id="RightBottom" d="M624.98 518.698C703.994 380.03 647.96 284.781 613.976 247.314C613.408 246.688 613.776 245.736 614.621 245.726C629.98 245.552 726.261 249.097 720.918 365.739C717.629 437.553 644.671 504.322 626.377 519.978C625.534 520.698 624.431 519.661 624.98 518.698Z" fill="white" fill-opacity="0.2"/>
<path id="LeftTop" d="M26.7634 237.387C57.2961 204.798 133.168 236.369 198.528 150.98C260.423 70.1168 336.459 12.4415 350.886 1.82916C351.663 1.25768 351.199 0.032042 350.235 0.0216815C152.524 -2.10225 52.4726 152.336 24.5571 236.275C24.1924 237.372 25.9733 238.23 26.7634 237.387Z" fill="white" fill-opacity="0.2"/>
<path id="RightTop" d="M701.139 237.387C670.606 204.798 594.734 236.369 529.374 150.98C467.479 70.1168 391.444 12.4415 377.016 1.82916C376.239 1.25768 376.703 0.032042 377.668 0.0216815C575.378 -2.10225 675.43 152.336 703.345 236.275C703.71 237.372 701.929 238.23 701.139 237.387Z" fill="white" fill-opacity="0.2"/>
<path id="CenterTop" fill-rule="evenodd" clip-rule="evenodd" d="M361.049 84.2279V84.2271C361.049 84.2272 361.049 84.2273 361.049 84.2275C361.049 84.2274 361.049 84.2274 361.05 84.2273V84.2277C379.108 124.536 439.988 213.857 504.223 213.857C475.524 214.824 399.745 226.433 361.05 265.128V265.129C361.049 265.129 361.049 265.129 361.049 265.129C322.354 226.433 246.575 214.825 217.876 213.857C282.11 213.857 342.991 124.536 361.049 84.2279Z" fill="white" fill-opacity="0.2"/>
<path id="CenterCube" fill-rule="evenodd" clip-rule="evenodd" d="M443.884 496.794C445.446 495.232 445.446 492.699 443.884 491.137L363.879 411.133C362.317 409.57 359.785 409.57 358.222 411.133L278.218 491.137C276.656 492.699 276.656 495.232 278.218 496.794L358.222 576.798C359.785 578.36 362.317 578.36 363.879 576.798L443.884 496.794ZM396.482 497.761C398.044 496.199 398.044 493.666 396.482 492.104L363.879 459.501C362.317 457.939 359.785 457.939 358.222 459.501L325.62 492.104C324.058 493.666 324.058 496.199 325.62 497.761L358.222 530.363C359.785 531.925 362.317 531.925 363.879 530.363L396.482 497.761Z" fill="white" fill-opacity="0.2"/>
</g>
</svg>
